<svg width="140" height="25" viewBox="0 0 140 25" fill="none" xmlns="http://www.w3.org/2000/svg">
<g clip-path="url(#clip0)">
<path d="M21.8704 0.842407H1.2864C0.576 0.842407 0 1.41841 0 2.12881V4.41521C0 5.12561 0.576 5.70241 1.2864 5.70241H21.8704C22.5808 5.70241 23.1568 5.12641 23.1568 4.41521V2.12881C23.1568 1.41841 22.5808 0.842407 21.8704 0.842407Z" fill="#09A5DB"/>
<path d="M21.8704 13.6032H1.2864C0.576 13.6032 0 14.1784 0 14.8896V17.1776C0 17.8864 0.576 18.4624 1.2864 18.4624H21.8704C22.5808 18.4624 23.1568 17.8864 23.1568 17.1768V14.8888C23.1568 14.1792 22.5808 13.6032 21.8704 13.6032Z" fill="#09A5DB"/>
<path d="M12.8648 19.9824H1.2864C0.576 19.9824 0 20.5584 0 21.2696V23.556C0 24.2664 0.576 24.8424 1.2864 24.8424H12.8648C13.5752 24.8424 14.1512 24.2664 14.1512 23.556V21.2704C14.1515 21.1013 14.1185 20.9338 14.054 20.7775C13.9894 20.6212 13.8947 20.4792 13.7752 20.3595C13.6557 20.2399 13.5138 20.145 13.3576 20.0803C13.2014 20.0156 13.0339 19.9823 12.8648 19.9824V19.9824Z" fill="#09A5DB"/>
<path d="M23.1568 7.2224H1.2864C0.576 7.2224 0 7.7984 0 8.5088V10.7968C0 11.5056 0.576 12.0824 1.2864 12.0824H23.1568C23.868 12.0824 24.4424 11.5064 24.4424 10.796V8.508C24.4424 7.7984 23.868 7.2224 23.1576 7.2224H23.1568Z" fill="#09A5DB"/>
<path d="M21.8704 0.842407H1.2864C0.576 0.842407 0 1.41841 0 2.12881V4.41521C0 5.12561 0.576 5.70241 1.2864 5.70241H21.8704C22.5808 5.70241 23.1568 5.12641 23.1568 4.41521V2.12881C23.1568 1.41841 22.5808 0.842407 21.8704 0.842407Z" fill="#09A5DB"/>
<path d="M46.9688 6.81761C46.417 6.25504 45.7586 5.80818 45.032 5.50321C44.2977 5.19877 43.5101 5.04375 42.7152 5.04721C41.8704 5.04721 41.1152 5.20401 40.4752 5.52081C39.9776 5.76401 39.5552 6.07281 39.2272 6.43201V6.08161C39.2283 5.90421 39.1616 5.73309 39.0408 5.60321C38.981 5.53514 38.9071 5.48091 38.8242 5.4443C38.7413 5.40769 38.6514 5.38957 38.5608 5.39121H36.0784C35.9878 5.38858 35.8977 5.40625 35.8148 5.44293C35.7319 5.47961 35.6582 5.53438 35.5992 5.60321C35.4762 5.73184 35.4087 5.90365 35.4112 6.08161V22.5064C35.4112 22.6912 35.4752 22.852 35.6008 22.9808C35.7288 23.1056 35.884 23.168 36.0784 23.168H38.6088C38.7805 23.1681 38.9453 23.1009 39.068 22.9808C39.1347 22.9214 39.1878 22.8482 39.2234 22.7663C39.2591 22.6844 39.2765 22.5957 39.2744 22.5064V16.9008C39.6128 17.2728 40.0632 17.5568 40.6 17.7528C41.2597 17.998 41.9578 18.1237 42.6616 18.124C43.4744 18.124 44.2616 17.9736 45.004 17.6696C45.7417 17.3649 46.4098 16.9137 46.968 16.3432C47.5421 15.7478 47.9946 15.0462 48.3 14.2776C48.6344 13.4728 48.796 12.564 48.796 11.5736C48.796 10.5848 48.6344 9.67441 48.3 8.86961C47.9768 8.07281 47.5264 7.37841 46.968 6.81761H46.9688ZM44.6976 12.752C44.56 13.0978 44.3581 13.4143 44.1024 13.6848C43.8528 13.9517 43.5515 14.1651 43.2168 14.312C42.8625 14.4658 42.4798 14.543 42.0936 14.5384C41.7157 14.5401 41.3414 14.4654 40.9932 14.3187C40.6449 14.172 40.3299 13.9564 40.0672 13.6848C39.8081 13.4155 39.6033 13.0988 39.464 12.752C39.3192 12.3847 39.2459 11.9932 39.248 11.5984C39.248 11.1872 39.3224 10.8008 39.464 10.4416C39.6056 10.0928 39.8104 9.78161 40.0672 9.52241C40.3307 9.25873 40.6404 9.0456 40.9808 8.89361C41.3303 8.73619 41.7095 8.65545 42.0928 8.65681C42.5008 8.65681 42.8752 8.73681 43.2136 8.89361C43.5468 9.0464 43.8496 9.25837 44.1072 9.51921C44.3597 9.78727 44.5599 10.1001 44.6976 10.4416C44.8392 10.8016 44.9096 11.1872 44.9096 11.5984C44.9096 12.0096 44.8392 12.3952 44.6976 12.752Z" fill="#011B34"/>
<path d="M62.3808 5.3912H59.872C59.7852 5.39242 59.6994 5.41087 59.6198 5.44547C59.5401 5.48008 59.4681 5.53016 59.408 5.5928C59.2786 5.7223 59.2059 5.89777 59.2056 6.0808V6.384C58.924 6.0456 58.5408 5.7568 58.0696 5.5208C57.436 5.204 56.6944 5.0472 55.8688 5.0472C55.072 5.0472 54.2904 5.1992 53.5512 5.5032C52.8056 5.8072 52.1352 6.2472 51.5616 6.8128C50.9719 7.40302 50.5014 8.10135 50.176 8.8696C49.8328 9.6688 49.6576 10.5816 49.6576 11.5736C49.6576 12.564 49.832 13.4728 50.1768 14.2776C50.524 15.0736 50.9832 15.7736 51.5504 16.3432C52.1152 16.9113 52.7867 17.362 53.5264 17.6696C54.2624 17.9711 55.0503 18.1255 55.8456 18.124C56.6704 18.124 57.4176 17.964 58.0576 17.652C58.5296 17.4144 58.9176 17.1256 59.2056 16.788V17.1136C59.2056 17.3016 59.276 17.4656 59.4136 17.5872C59.5355 17.7082 59.7002 17.7763 59.872 17.7768H62.3808C62.4686 17.7796 62.5561 17.764 62.6375 17.7309C62.719 17.6979 62.7926 17.6481 62.8536 17.5848C62.9162 17.5236 62.9656 17.4503 62.9986 17.3692C63.0317 17.2881 63.0477 17.2011 63.0456 17.1136V6.0816C63.0483 5.90376 62.9811 5.73196 62.8584 5.6032C62.7994 5.5348 62.7259 5.48032 62.6434 5.44367C62.5608 5.40701 62.4711 5.3891 62.3808 5.3912V5.3912ZM58.9944 12.7368C58.8616 13.0847 58.6612 13.4028 58.4048 13.6728C58.1481 13.9348 57.8458 14.1479 57.5128 14.3016C57.1768 14.4576 56.7952 14.5384 56.3888 14.5384C55.9976 14.5384 55.6216 14.4584 55.2768 14.3016C54.9396 14.1502 54.6338 13.9369 54.3752 13.6728C54.1164 13.4043 53.9152 13.0858 53.784 12.7368C53.6438 12.3737 53.5722 11.9877 53.5728 11.5984C53.5728 11.1872 53.6448 10.8008 53.784 10.4416C53.9256 10.0896 54.1256 9.776 54.3752 9.5192C54.6347 9.25664 54.9407 9.04452 55.2776 8.8936C55.6216 8.7368 55.9976 8.6568 56.3888 8.6568C56.7952 8.6568 57.1776 8.7368 57.5128 8.8936C57.8488 9.0512 58.1512 9.26 58.4048 9.5192C58.6528 9.7816 58.8528 10.0928 58.9944 10.4416C59.136 10.8016 59.2056 11.1872 59.2056 11.5984C59.2056 11.9904 59.1352 12.3744 58.9944 12.7368Z" fill="#011B34"/>
<path d="M87.4096 11.2584C87.0429 10.9451 86.6258 10.6963 86.176 10.5224C85.7112 10.3376 85.216 10.1912 84.6968 10.0928L82.7832 9.7192C82.2928 9.628 81.9512 9.5048 81.7592 9.348C81.5872 9.212 81.5024 9.056 81.5024 8.864C81.5024 8.6624 81.6224 8.496 81.8592 8.348C82.1184 8.1904 82.4792 8.1096 82.9264 8.1096C83.4172 8.10873 83.9031 8.20668 84.3552 8.3976C84.8128 8.5912 85.2432 8.8112 85.6176 9.0576C86.1752 9.3976 86.648 9.3528 86.9896 8.9592L87.908 7.9144C88.096 7.7088 88.1944 7.4856 88.1944 7.2616C88.1944 7.028 88.0744 6.8136 87.8456 6.6184C87.456 6.2824 86.84 5.9264 86.0152 5.5792C85.1912 5.2264 84.1528 5.0472 82.9272 5.0472C82.1216 5.0472 81.38 5.1544 80.724 5.3632C80.0632 5.5744 79.4976 5.8672 79.04 6.2304C78.5776 6.6032 78.2136 7.0368 77.9648 7.536C77.7174 8.03357 77.5892 8.58191 77.5904 9.1376C77.5904 10.1648 77.9064 11.0008 78.5256 11.6256C79.1448 12.2344 79.9704 12.6504 80.9864 12.8528L82.9744 13.2776C83.5392 13.3896 83.9696 13.5176 84.248 13.6608C84.4896 13.7832 84.6056 13.9592 84.6056 14.2048C84.6056 14.4256 84.4896 14.6208 84.2512 14.7976C84.0008 14.9888 83.6056 15.0824 83.0784 15.0824C82.536 15.0883 81.9996 14.9695 81.5104 14.7352C81.0487 14.513 80.6183 14.2308 80.2304 13.896C80.0577 13.7589 79.8622 13.6532 79.6528 13.584C79.4144 13.516 79.1472 13.5896 78.8392 13.824L77.74 14.6672C77.42 14.9328 77.2864 15.2528 77.3456 15.6232C77.4 15.9776 77.704 16.344 78.272 16.7592C78.7792 17.1112 79.4296 17.432 80.2128 17.7064C80.9952 17.9832 81.9128 18.1248 82.9536 18.1248C83.7904 18.1248 84.5648 18.0192 85.2448 17.8104C85.9288 17.5928 86.5288 17.3024 87.0192 16.9304C87.4996 16.5713 87.8924 16.108 88.168 15.5752C88.4335 15.0518 88.5699 14.4725 88.5656 13.8856C88.5656 13.3024 88.4648 12.788 88.2536 12.356C88.0509 11.9363 87.7636 11.5632 87.4096 11.26V11.2584Z" fill="#011B34"/>
<path d="M98.3808 14.256C98.2448 14.0352 98.052 13.9144 97.8248 13.9024C97.6136 13.8904 97.3912 13.9648 97.1768 14.1096C96.9983 14.2232 96.8043 14.3105 96.6008 14.3688C96.4551 14.4125 96.3041 14.4357 96.152 14.4376C96.0472 14.4376 95.9264 14.4256 95.7968 14.3928C95.6712 14.363 95.5542 14.3044 95.4552 14.2216C95.3472 14.136 95.2616 14.0096 95.1856 13.8488C95.112 13.6848 95.0736 13.4648 95.0736 13.1856V8.6808H98.3392C98.5272 8.6808 98.6944 8.6088 98.8408 8.4664C98.9824 8.3224 99.052 8.164 99.052 7.992V6.0824C99.0529 5.99 99.0342 5.89846 98.9969 5.81389C98.9597 5.72933 98.9048 5.65368 98.836 5.592C98.702 5.46482 98.5247 5.39333 98.34 5.392H95.0728V2.3272C95.0728 2.1248 95.0072 1.9544 94.8696 1.8312C94.7469 1.71152 94.5826 1.64388 94.4112 1.6424H91.8744C91.6947 1.63971 91.5211 1.70715 91.3904 1.8304C91.3231 1.894 91.2698 1.97098 91.2339 2.0564C91.1981 2.14182 91.1806 2.23379 91.1824 2.3264V5.392H89.736C89.6455 5.39027 89.5556 5.40826 89.4727 5.44473C89.3898 5.4812 89.3159 5.53528 89.256 5.6032C89.1353 5.73341 89.0689 5.90484 89.0704 6.0824V7.9928C89.0704 8.1608 89.136 8.3208 89.2552 8.4608C89.3133 8.53153 89.3867 8.58814 89.4698 8.62639C89.553 8.66464 89.6437 8.68352 89.7352 8.6816H91.1832V14.036C91.1832 14.7512 91.3136 15.3664 91.5608 15.8736C91.8088 16.3744 92.1352 16.796 92.5304 17.112C92.9388 17.4369 93.4072 17.6783 93.9088 17.8224C94.4189 17.9747 94.9484 18.052 95.4808 18.052C96.2056 18.052 96.8944 17.94 97.5432 17.7216C98.1912 17.4992 98.7352 17.1616 99.1672 16.712C99.4536 16.38 99.488 16.0136 99.2536 15.648L98.3816 14.256H98.3808Z" fill="#011B34"/>
<path d="M112.13 5.3912H109.623C109.537 5.39275 109.452 5.41136 109.373 5.44596C109.294 5.48056 109.222 5.53047 109.162 5.5928C109.098 5.65685 109.048 5.73295 109.013 5.81671C108.979 5.90047 108.961 5.99023 108.962 6.0808V6.384C108.674 6.0456 108.292 5.7568 107.82 5.5208C107.188 5.204 106.45 5.0472 105.618 5.0472C104.826 5.0472 104.044 5.1992 103.305 5.5032C102.558 5.8072 101.889 6.2472 101.315 6.8128C100.724 7.40217 100.254 8.10072 99.9296 8.8696C99.5832 9.6688 99.4088 10.5816 99.4088 11.5736C99.4088 12.564 99.5832 13.4728 99.9288 14.2776C100.275 15.0736 100.734 15.7736 101.303 16.3432C101.867 16.9119 102.538 17.3628 103.278 17.6696C104.012 17.9705 104.797 18.1249 105.59 18.124C106.422 18.124 107.169 17.964 107.806 17.652C108.287 17.4144 108.669 17.1256 108.962 16.788V17.1136C108.962 17.3016 109.029 17.4656 109.166 17.5872C109.226 17.6473 109.297 17.695 109.376 17.7276C109.454 17.7601 109.538 17.7768 109.623 17.7768H112.13C112.219 17.7791 112.306 17.7632 112.388 17.7302C112.47 17.6972 112.544 17.6477 112.606 17.5848C112.668 17.5232 112.717 17.4497 112.75 17.3687C112.783 17.2878 112.799 17.201 112.798 17.1136V6.0816C112.8 5.90352 112.732 5.73166 112.609 5.6032C112.55 5.53437 112.476 5.47961 112.393 5.44293C112.31 5.40625 112.22 5.38857 112.13 5.3912H112.13ZM108.743 12.7368C108.612 13.0863 108.41 13.4049 108.15 13.6728C107.896 13.9371 107.594 14.1505 107.259 14.3016C106.908 14.4618 106.525 14.5427 106.139 14.5384C105.749 14.5384 105.376 14.4584 105.03 14.3016C104.692 14.1502 104.387 13.9369 104.128 13.6728C103.87 13.404 103.668 13.0856 103.536 12.7368C103.395 12.3739 103.323 11.9878 103.324 11.5984C103.324 11.1872 103.394 10.8008 103.535 10.4416C103.671 10.099 103.872 9.78582 104.127 9.5192C104.387 9.25696 104.693 9.04488 105.03 8.8936C105.378 8.73624 105.757 8.65549 106.139 8.6568C106.55 8.6568 106.923 8.7368 107.259 8.8936C107.601 9.0512 107.901 9.26 108.15 9.5192C108.403 9.7816 108.603 10.0928 108.743 10.4416C108.887 10.8016 108.962 11.1872 108.962 11.5984C108.962 11.9904 108.886 12.3744 108.743 12.7368Z" fill="#011B34"/>
<path d="M125.911 14.0912L124.472 13.0048C124.198 12.7872 123.936 12.728 123.71 12.8208C123.508 12.903 123.327 13.0315 123.183 13.196C122.83 13.6128 122.459 13.944 122.085 14.1752C121.722 14.3984 121.246 14.5112 120.684 14.5112C120.271 14.5112 119.892 14.4376 119.554 14.288C119.219 14.1416 118.917 13.9281 118.668 13.6608C118.416 13.3896 118.219 13.0727 118.086 12.7272C117.952 12.3659 117.884 11.9831 117.886 11.5976C117.886 11.18 117.951 10.7952 118.086 10.4408C118.218 10.0888 118.414 9.77521 118.668 9.51841C118.923 9.25648 119.225 9.04433 119.558 8.89281C119.911 8.73194 120.296 8.65108 120.684 8.65601C121.246 8.65601 121.716 8.772 122.084 8.9968C122.458 9.228 122.83 9.5568 123.186 9.976C123.333 10.1432 123.506 10.268 123.71 10.352C123.94 10.4408 124.198 10.3816 124.466 10.1672L125.904 9.07921C126.077 8.96241 126.206 8.80161 126.283 8.58721C126.323 8.47816 126.338 8.36154 126.327 8.24594C126.316 8.13033 126.279 8.01868 126.219 7.9192C125.695 7.0896 124.947 6.3984 123.994 5.8552C123.042 5.3216 121.904 5.0472 120.627 5.0472C119.732 5.04162 118.845 5.21375 118.018 5.5536C117.228 5.87468 116.507 6.34484 115.894 6.9384C115.287 7.52888 114.806 8.23793 114.484 9.0216C114.141 9.83698 113.966 10.7131 113.97 11.5976C113.97 12.504 114.146 13.3704 114.484 14.1656C114.81 14.942 115.289 15.6446 115.894 16.2312C117.164 17.4559 118.863 18.1352 120.627 18.124C121.904 18.124 123.042 17.8512 123.994 17.3104C124.948 16.7744 125.695 16.0808 126.223 15.2432C126.281 15.1461 126.317 15.0371 126.327 14.9244C126.338 14.8117 126.323 14.6981 126.283 14.592C126.208 14.3938 126.079 14.2203 125.911 14.0912V14.0912Z" fill="#011B34"/>
<path d="M139.271 16.6624L135.301 10.9072L138.698 6.4856C138.876 6.2312 138.922 5.9864 138.84 5.7576C138.781 5.592 138.621 5.392 138.21 5.392H135.522C135.372 5.392 135.222 5.4288 135.081 5.4976C134.929 5.5632 134.792 5.6976 134.687 5.8736L131.973 9.6216H131.314V0.764003C131.317 0.586946 131.25 0.416023 131.126 0.288803C130.999 0.165289 130.828 0.0973842 130.65 0.100003H128.138C127.96 0.100515 127.789 0.167581 127.658 0.288003C127.591 0.347922 127.538 0.421415 127.502 0.503527C127.467 0.58564 127.449 0.674461 127.45 0.764003V17.1136C127.45 17.3008 127.522 17.4656 127.658 17.5872C127.786 17.711 127.959 17.7791 128.138 17.7768H130.651C130.739 17.7794 130.827 17.7636 130.909 17.7306C130.99 17.6975 131.064 17.6479 131.126 17.5848C131.187 17.5229 131.235 17.4491 131.268 17.368C131.3 17.2869 131.315 17.2001 131.313 17.1128V12.7824H132.039L135.004 17.2608C135.214 17.6032 135.507 17.776 135.87 17.776H138.684C139.11 17.776 139.288 17.576 139.359 17.4064C139.461 17.1664 139.431 16.9256 139.271 16.6616V16.6624Z" fill="#011B34"/>
<path d="M76.652 5.392H73.8416C73.6056 5.392 73.4136 5.472 73.2808 5.6144C73.1597 5.74188 73.0747 5.89925 73.0344 6.0704L70.9624 13.7016H70.456L68.2264 6.072C68.1885 5.90778 68.1163 5.75345 68.0144 5.6192C67.9543 5.54549 67.8779 5.48664 67.7914 5.44723C67.7048 5.40782 67.6103 5.38892 67.5152 5.392H64.604C64.228 5.392 63.9904 5.512 63.9024 5.7456C63.8256 5.9456 63.8256 6.18 63.8984 6.4232L67.4568 17.1616C67.5152 17.332 67.6072 17.4744 67.7312 17.588C67.8656 17.7144 68.0432 17.7776 68.2616 17.7776H69.7656L69.6416 18.1248L69.2816 19.1272C69.1632 19.4656 68.9768 19.7312 68.7352 19.908C68.4951 20.0882 68.2017 20.1831 67.9016 20.1776C67.6392 20.1776 67.3896 20.1216 67.148 20.0152C66.9144 19.9117 66.6928 19.7829 66.4872 19.6312C66.3008 19.5024 66.0816 19.4295 65.8552 19.4208H65.8256C65.5792 19.4208 65.3672 19.5552 65.196 19.816L64.3024 21.1112C63.9376 21.6696 64.14 22.0344 64.3744 22.2376C64.8168 22.6488 65.372 22.9688 66.0264 23.1984C66.6744 23.4272 67.3896 23.5384 68.1504 23.5384C69.436 23.5384 70.5104 23.196 71.336 22.5032C72.156 21.8152 72.7616 20.88 73.1304 19.7128L77.2584 6.4232C77.3528 6.1384 77.3528 5.9032 77.2672 5.7112C77.1976 5.5648 77.0328 5.392 76.652 5.392Z" fill="#011B34"/>
</g>
<defs>
<clipPath id="clip0">
<rect width="140" height="25" fill="white"/>
</clipPath>
</defs>
</svg>
